# Blender v2.92.0 OBJ File: ''
# www.blender.org
mtllib untitled.mtl
o Plane
v -46.062233 -6.545264 -0.673212
v 46.062233 -6.545264 -0.673212
v -46.062233 11.355178 -0.673213
v 46.062233 11.355178 -0.673213
vt 0.000000 0.000000
vt 1.000000 0.000000
vt 1.000000 1.000000
vt 0.000000 1.000000
vn 0.0000 0.0000 1.0000
usemtl Material.005
s off
f 1/1/1 2/2/1 4/3/1 3/4/1
o Plane.001
v -5.167225 1.404958 9.837660
v 5.167225 1.404958 9.837660
v -5.167225 1.404957 -0.676310
v 5.167225 1.404957 -0.676310
vt 0.000000 0.000000
vt 1.000000 0.000000
vt 1.000000 1.000000
vt 0.000000 1.000000
vn 0.0000 1.0000 -0.0000
usemtl Material.005
s off
f 5/5/2 6/6/2 8/7/2 7/8/2
o Cube_Cube.001
v 1.704134 1.402714 -0.436521
v 1.704134 1.402714 0.067155
v 1.704134 1.906390 -0.436521
v 1.704134 1.906390 0.067155
v 2.207810 1.402714 -0.436521
v 2.207810 1.402714 0.067155
v 2.207810 1.906390 -0.436521
v 2.207810 1.906390 0.067155
vt 0.375000 0.000000
vt 0.625000 0.000000
vt 0.625000 0.250000
vt 0.375000 0.250000
vt 0.625000 0.500000
vt 0.375000 0.500000
vt 0.625000 0.750000
vt 0.375000 0.750000
vt 0.625000 1.000000
vt 0.375000 1.000000
vt 0.125000 0.500000
vt 0.125000 0.750000
vt 0.875000 0.500000
vt 0.875000 0.750000
vn -1.0000 -0.0000 0.0000
vn 0.0000 1.0000 0.0000
vn 1.0000 0.0000 0.0000
vn 0.0000 -1.0000 0.0000
vn 0.0000 -0.0000 -1.0000
vn 0.0000 0.0000 1.0000
usemtl Material.004
s off
f 9/9/3 10/10/3 12/11/3 11/12/3
f 11/12/4 12/11/4 16/13/4 15/14/4
f 15/14/5 16/13/5 14/15/5 13/16/5
f 13/16/6 14/15/6 10/17/6 9/18/6
f 11/19/7 15/14/7 13/16/7 9/20/7
f 16/13/8 12/21/8 10/22/8 14/15/8
o Cube.001_Cube.002
v 2.449005 1.398907 -0.445529
v 2.449005 1.398907 0.058147
v 2.206042 1.840107 -0.445529
v 2.206042 1.840107 0.058147
v 2.890206 1.641870 -0.445529
v 2.890206 1.641870 0.058147
v 2.647243 2.083071 -0.445529
v 2.647243 2.083071 0.058147
vt 0.375000 0.000000
vt 0.625000 0.000000
vt 0.625000 0.250000
vt 0.375000 0.250000
vt 0.625000 0.500000
vt 0.375000 0.500000
vt 0.625000 0.750000
vt 0.375000 0.750000
vt 0.625000 1.000000
vt 0.375000 1.000000
vt 0.125000 0.500000
vt 0.125000 0.750000
vt 0.875000 0.500000
vt 0.875000 0.750000
vn -0.8760 -0.4824 0.0000
vn -0.4824 0.8760 -0.0000
vn 0.8760 0.4824 -0.0000
vn 0.4824 -0.8760 0.0000
vn 0.0000 -0.0000 -1.0000
vn 0.0000 0.0000 1.0000
usemtl Material.003
s off
f 17/23/9 18/24/9 20/25/9 19/26/9
f 19/26/10 20/25/10 24/27/10 23/28/10
f 23/28/11 24/27/11 22/29/11 21/30/11
f 21/30/12 22/29/12 18/31/12 17/32/12
f 19/33/13 23/28/13 21/30/13 17/34/13
f 24/27/14 20/35/14 18/36/14 22/29/14
o Plane.002
v -3.044378 1.404957 -0.613335
v -1.044378 1.404957 -0.613335
v -3.044378 3.404957 -0.613335
v -1.044378 3.404957 -0.613335
vt 0.000000 0.000000
vt 1.000000 0.000000
vt 1.000000 1.000000
vt 0.000000 1.000000
vn 0.0000 0.0000 1.0000
usemtl Material.002
s off
f 25/37/15 26/38/15 28/39/15 27/40/15
o Cube.002_Cube.004
v -2.232214 2.216611 -0.461920
v -2.232214 2.216611 -0.085228
v -2.232214 2.593303 -0.461920
v -2.232214 2.593303 -0.085228
v -1.855523 2.216611 -0.461920
v -1.855523 2.216611 -0.085228
v -1.855523 2.593303 -0.461920
v -1.855523 2.593303 -0.085228
vt 0.375000 0.000000
vt 0.625000 0.000000
vt 0.625000 0.250000
vt 0.375000 0.250000
vt 0.625000 0.500000
vt 0.375000 0.500000
vt 0.625000 0.750000
vt 0.375000 0.750000
vt 0.625000 1.000000
vt 0.375000 1.000000
vt 0.125000 0.500000
vt 0.125000 0.750000
vt 0.875000 0.500000
vt 0.875000 0.750000
vn -1.0000 -0.0000 0.0000
vn 0.0000 1.0000 -0.0000
vn 1.0000 0.0000 0.0000
vn 0.0000 -1.0000 0.0000
vn 0.0000 0.0000 -1.0000
vn 0.0000 0.0000 1.0000
usemtl Material.001
s off
f 29/41/16 30/42/16 32/43/16 31/44/16
f 31/44/17 32/43/17 36/45/17 35/46/17
f 35/46/18 36/45/18 34/47/18 33/48/18
f 33/48/19 34/47/19 30/49/19 29/50/19
f 31/51/20 35/46/20 33/48/20 29/52/20
f 36/45/21 32/53/21 30/54/21 34/47/21
